HIERARCHY
ROOT Hips
{
	OFFSET 18.2750 44.7772 -17.1432
	CHANNELS 6 Xposition Yposition Zposition Zrotation Xrotation Yrotation
	JOINT Chest
	{
		OFFSET -0.7476 5.6204 -0.7643
		CHANNELS 3 Zrotation Xrotation Yrotation
		JOINT Chest2
		{
			OFFSET 0.0000 4.2978 0.0000
			CHANNELS 3 Zrotation Xrotation Yrotation
			JOINT Neck
			{
				OFFSET 0.0000 10.0034 0.0000
				CHANNELS 3 Zrotation Xrotation Yrotation
				JOINT Head
				{
					OFFSET 0.0000 2.1739 0.0000
					CHANNELS 3 Zrotation Xrotation Yrotation
					End Site
					{
						OFFSET 0.0000 9.0866 0.0000
					}
				}
			}
			JOINT LeftCollar
			{
				OFFSET 2.4168 5.4927 0.5330
				CHANNELS 3 Zrotation Xrotation Yrotation
				JOINT LeftShoulder
				{
					OFFSET 5.5084 0.0000 0.0000
					CHANNELS 3 Zrotation Xrotation Yrotation
					JOINT LeftElbow
					{
						OFFSET 0.0000 -11.5513 0.0000
						CHANNELS 3 Zrotation Xrotation Yrotation
						JOINT LeftWrist
						{
							OFFSET 0.0000 -11.1601 0.0000
							CHANNELS 3 Zrotation Xrotation Yrotation
							End Site
							{
								OFFSET 0.0000 -2.1739 0.0000
							}
						}
					}
				}
			}
			JOINT RightCollar
			{
				OFFSET -2.5920 6.4306 1.6526
				CHANNELS 3 Zrotation Xrotation Yrotation
				JOINT RightShoulder
				{
					OFFSET -4.4088 0.0000 0.0000
					CHANNELS 3 Zrotation Xrotation Yrotation
					JOINT RightElbow
					{
						OFFSET 0.0000 -10.4656 0.0000
						CHANNELS 3 Zrotation Xrotation Yrotation
						JOINT RightWrist
						{
							OFFSET 0.0000 -12.3215 0.0000
							CHANNELS 3 Zrotation Xrotation Yrotation
							End Site
							{
								OFFSET 0.0000 -2.1739 0.0000
							}
						}
					}
				}
			}
		}
	}
	JOINT LeftHip
	{
		OFFSET 2.1688 -2.5378 -0.2691
		CHANNELS 3 Zrotation Xrotation Yrotation
		JOINT LeftKnee
		{
			OFFSET 0.0000 -20.2804 0.0000
			CHANNELS 3 Zrotation Xrotation Yrotation
			JOINT LeftAnkle
			{
				OFFSET 0.0000 -16.7325 0.0000
				CHANNELS 3 Zrotation Xrotation Yrotation
				End Site
				{
					OFFSET 0.0000 0.0000 8.6021
				}
			}
		}
	}
	JOINT RightHip
	{
		OFFSET -2.0800 -2.6839 -0.0441
		CHANNELS 3 Zrotation Xrotation Yrotation
		JOINT RightKnee
		{
			OFFSET 0.0000 -19.8979 0.0000
			CHANNELS 3 Zrotation Xrotation Yrotation
			JOINT RightAnkle
			{
				OFFSET 0.0000 -16.8381 0.0000
				CHANNELS 3 Zrotation Xrotation Yrotation
				End Site
				{
					OFFSET 0.0000 0.0000 7.0845
				}
			}
		}
	}
}
MOTION
Frames: 18
Frame Time: 0.016667
27.9144 42.8669 26.6828 -2.2525 -1.3291 121.6478 -8.3171 -1.8028 -39.2608 -1.0224 1.9121 23.4050 18.9036 30.3766 -5.0277 -11.9830 0.3712 6.1593 104.3539 -5.6595 35.4369 68.7067 0.8540 65.0282 -4.3571 -75.3528 117.9449 -41.5749 -4.5933 -0.7427 34.3649 -3.4975 -0.7667 -79.2484 9.3476 65.0322 4.0728 -5.7759 -43.8905 3.4998 -6.9935 -83.9954 5.9446 -17.3816 20.2567 59.7574 46.1287 -133.6662 -8.2661 -37.1576 65.1341 -22.8426 -29.3902 -65.4770 -50.6542 43.2629 64.6688 -11.3545 18.2163 -0.2570
27.3840 42.8747 26.4133 -3.1203 -1.4214 119.8046 -9.0793 -2.3569 -40.8879 -1.0291 2.1697 23.9333 18.4148 30.0511 -2.8929 -12.0810 0.3677 6.5848 105.2570 -5.9336 35.3072 69.5675 2.6625 70.6964 -53.2734 -83.8412 67.8173 -39.0911 -7.7995 -6.6824 33.5502 -4.4065 -2.5346 -78.6077 10.2561 67.3793 4.3380 -5.9653 -44.6608 3.5431 -7.5006 -84.7844 6.0246 -17.6110 20.7276 56.1975 47.6153 -133.4766 -4.8972 -38.8149 69.6875 -23.3704 -31.2036 -66.1333 -51.1287 41.9662 66.0773 -11.9965 19.1232 -0.0004
26.8166 42.8985 26.1545 -4.5275 -1.6738 118.2655 -9.4876 -3.5277 -44.7652 -0.8482 1.8184 24.4781 16.3087 30.4639 0.5067 -12.6582 1.1567 6.4313 49.7204 -12.7090 -11.6290 155.7013 41.4961 -14.1426 74.8517 -23.8616 -159.1476 -33.0297 -14.0019 6.8063 33.8319 1.3962 -2.7221 -78.9629 9.8979 64.6705 5.0752 -6.7262 -44.8016 3.2023 -6.8837 -87.1899 5.8055 -18.4307 20.3156 51.7604 50.1908 -125.9632 -4.4847 -39.2994 69.5839 -23.9276 -33.1344 -65.8094 -49.3414 41.2028 62.2105 -12.3927 20.5276 3.3465
26.2076 42.9184 25.8888 -4.6758 -1.3693 115.6100 -9.9248 -2.5994 -43.5305 -0.6448 1.6378 23.4693 16.4900 29.5584 1.9034 -12.2486 1.4170 7.1377 48.4774 -12.0703 -10.5367 154.9305 42.1339 -23.8700 84.6498 -6.2618 -134.2476 -35.9129 -4.6320 -10.4390 33.2527 -0.8767 -4.7651 -79.2348 10.6123 66.9460 5.6377 -7.1445 -44.0887 3.7084 -5.3595 -88.5930 5.8753 -17.9776 20.2841 46.8830 51.9626 -121.3084 -2.3119 -39.4270 69.5905 -25.0465 -34.9500 -67.9922 -50.4734 40.3696 60.8953 -15.1918 20.9517 8.9138
25.5877 42.9359 25.5992 -6.3707 -1.3294 112.7314 -10.3549 -3.9843 -43.7081 -0.6293 1.6274 22.9096 15.4878 29.7166 4.5653 -12.7366 1.6814 7.0813 47.6475 -11.5889 -10.4387 153.7297 43.0512 -31.4550 91.7348 10.3147 -154.0131 -32.9979 -19.4224 6.4652 31.5761 -1.7474 -6.0022 -78.9145 11.4754 69.2419 5.7771 -7.2390 -43.4300 2.7670 -7.2759 -90.1589 5.6645 -19.8649 21.4729 45.6873 54.1296 -117.6046 -5.4977 -37.3608 67.2528 -24.3955 -37.0087 -66.7320 -48.9132 37.5862 61.7630 -12.3146 22.5359 8.3285
24.9382 42.9437 25.2876 -6.7493 -0.8250 110.2212 -10.8435 -3.8544 -44.6982 -0.5675 1.5420 22.6442 14.3948 30.1653 7.8905 -12.8787 1.7736 6.8210 47.6011 -10.8184 -11.4660 153.2128 45.2847 -38.5590 102.8393 21.7654 -136.9279 -35.6901 -12.4346 -10.9663 30.1855 -0.5276 -6.1529 -78.8701 12.0490 70.1845 6.4945 -7.7790 -43.1662 3.1614 -6.7072 -91.0752 4.9008 -20.1998 20.7316 42.6359 55.9756 -112.5262 -5.6090 -35.3535 66.4616 -25.2327 -38.2999 -67.7719 -47.7696 36.6940 59.3472 -15.4212 23.9382 13.0974
24.3333 43.0237 24.9809 -6.3814 -0.5553 106.6573 -10.0854 -1.5042 -46.2030 -0.4463 1.2554 24.1445 13.5606 27.5620 11.8461 -13.3108 3.3892 6.4415 48.9256 -13.1988 -9.2796 150.6289 44.3781 -40.1210 114.8323 30.5824 -142.5511 -34.7444 -14.2827 -11.0119 28.0963 -3.3753 -8.2279 -78.4575 11.3213 71.3544 6.2319 -7.2103 -42.5286 4.2590 -5.9612 -90.5865 4.9854 -19.4492 20.4321 37.8436 57.7060 -106.4968 -5.9015 -35.4016 66.2975 -24.6891 -39.2979 -69.1644 -46.8183 34.2011 57.1944 -17.8331 25.7268 19.8399
23.8045 43.1362 24.6461 -4.8477 -0.0238 100.8864 -10.2255 0.3594 -43.1352 -0.3056 0.9881 23.0651 12.7893 27.5983 14.5932 -13.8850 4.0209 6.5608 47.9669 -12.9693 -7.2530 150.1829 41.5632 -42.0056 134.6561 36.5206 -154.5192 -36.9194 -6.5778 -24.0636 25.7809 -6.9413 -8.9964 -78.4807 12.5994 75.2642 5.3613 -6.7384 -40.5499 6.3033 -4.2518 -92.5523 5.6545 -16.8523 20.9785 29.6333 59.0798 -96.6645 -7.0376 -35.2400 65.4258 -21.8317 -39.8122 -65.3328 -44.9019 32.7159 56.1419 -19.4540 28.6028 24.1043
23.2527 43.3234 24.3372 -6.2009 0.8936 97.5883 -11.2351 -0.0515 -45.9376 -0.0498 0.6284 23.4307 10.9695 27.0109 19.0585 -13.6565 5.3067 7.5228 48.2375 -12.2191 -9.1192 157.6035 43.3877 -50.8432 143.0187 36.5108 -33.6113 7.1825 23.4574 -138.4613 26.1595 -1.8634 -8.0519 -79.2434 11.0286 71.3189 6.0373 -6.9158 -41.1106 4.4142 -5.4539 -92.4150 4.6495 -17.3718 19.5592 21.1183 59.6535 -86.0931 -7.8556 -34.8116 64.7789 -22.9473 -42.3875 -67.4489 -43.0616 30.3731 52.1877 -23.4617 32.1631 34.8345
22.6740 43.5826 24.0071 -8.2917 0.5903 93.1093 -10.3778 -1.5862 -46.2668 -0.1542 0.8097 22.3892 9.5166 25.8205 24.4568 -14.5919 6.8592 7.8056 46.8177 -11.4518 -8.6860 164.8122 43.8937 -56.8920 145.9892 36.5406 -24.5161 8.3409 15.4860 -141.5952 24.7882 -1.3632 -7.3613 -79.0307 10.4270 68.6052 4.9216 -5.7686 -42.3258 6.5008 -3.3446 -91.3695 4.2487 -19.2296 18.8147 15.6885 59.1788 -77.5281 -9.2870 -35.0165 64.7248 -21.4399 -46.2833 -63.9419 -39.5533 30.6497 46.9878 -29.1250 36.4361 44.3653
22.0923 43.8880 23.6438 -9.2105 1.1574 87.5067 -7.7082 3.6063 -48.2995 0.8659 -0.8757 24.7660 8.7305 14.9490 31.6088 -11.8665 12.6861 6.1138 46.9404 -15.6758 -2.4759 168.7005 45.5415 -56.1730 146.1698 35.0252 -25.6683 8.9402 16.2287 -132.6822 25.0208 -8.1539 -11.7217 -81.6141 5.8762 62.0546 3.6794 -4.4447 -37.6531 5.9066 -5.9173 -86.1917 4.1317 -19.4948 19.1282 8.6977 58.0352 -68.7365 -10.7206 -35.8591 64.7921 -20.0708 -49.7591 -62.5683 -36.9625 30.0642 43.1824 -35.4629 41.8368 55.8406
21.5232 44.1735 23.1511 -10.5228 2.4948 81.2418 -12.1119 -3.7927 -48.4609 -0.2728 1.0659 21.9707 9.1997 25.8882 35.5427 -16.3159 7.7971 8.0795 46.6107 -9.5135 -12.2491 -177.1140 41.8703 -74.8902 144.7041 33.8370 -28.8330 12.6184 15.4683 -132.8158 23.8642 6.3529 -1.3092 -79.7850 9.1737 62.7614 4.1980 -5.0296 -43.2988 4.9056 -5.0512 -89.7882 3.2703 -19.7070 18.2912 0.0814 55.2634 -57.9630 -11.0487 -35.4904 65.6907 -19.9739 -54.1646 -62.7843 -34.4968 30.6649 38.3396 -45.3983 45.5081 67.5823
20.9222 44.4662 22.7871 -10.1083 3.0779 74.5320 -12.6904 -1.6249 -48.4942 -0.2954 0.8754 22.5909 11.6824 22.8672 40.4338 -17.0377 9.3367 8.2820 47.2375 -11.3673 -9.6054 -172.9936 38.7003 -76.5946 142.4961 31.0499 -29.5211 18.0855 18.1066 -132.8780 23.0115 5.1351 -0.7427 -79.8213 7.3556 60.8157 3.9092 -4.6760 -45.9062 4.8384 -6.0987 -82.8795 2.9504 -18.9253 17.7173 -4.5642 52.5489 -51.8227 -11.8625 -37.5959 67.1524 -16.9660 -57.1008 -59.7155 -33.1854 31.7003 31.6928 -54.8332 49.7159 80.5238
20.2977 44.7360 22.4517 -8.5211 3.3973 67.9855 -13.7178 -0.4663 -69.5359 -1.9910 1.0511 43.8634 14.6467 20.2994 46.4433 -16.7996 10.8209 6.8308 47.5679 -11.0067 -10.1167 167.3910 43.3984 -62.5073 172.1015 11.7827 -2.1658 -2.0154 13.1683 63.1287 23.4255 7.6280 1.1823 -80.7338 5.6821 57.5183 2.9078 -3.2205 -38.5042 4.5505 -8.3827 -86.8499 -0.4903 -17.9550 15.9276 -3.9261 49.8213 -31.3579 -20.4101 -28.6957 55.0422 -14.4864 -59.5038 -58.6147 -33.9646 37.1593 37.8122 -57.2659 53.1282 75.3461
19.7222 44.8886 22.0941 -9.7916 4.3986 63.2451 -14.0357 -0.4072 -65.1188 -1.1636 0.7855 36.4259 16.2408 18.2928 50.8176 -16.9049 10.5972 8.5009 97.9736 -4.4121 41.2151 136.8257 -2.3645 88.3279 -153.0024 -23.7459 70.6515 -7.2185 6.7355 24.7777 21.8178 10.7321 4.9424 -81.4984 4.9915 53.7243 2.4843 -2.6283 -35.9544 5.9662 -6.6263 -84.4277 -0.4930 -19.5429 14.2401 -6.4185 47.5789 -26.9058 -23.0608 -27.4554 54.1865 -14.9175 -64.8551 -60.4268 -39.8115 43.2802 47.7525 -50.0479 56.8185 66.5974
19.1213 44.9924 21.7751 -9.4813 5.3628 58.5932 -15.6826 2.2443 -57.8015 0.0855 -0.1219 27.1074 21.3311 15.8178 58.4922 -16.8506 14.5237 6.6683 108.4354 -4.3647 34.7563 77.6170 9.5323 108.9866 -105.1140 -56.9313 -58.3380 -62.5025 6.2010 60.7219 22.0296 10.8129 8.3799 -83.4087 5.1720 52.0688 2.3779 -2.4779 -32.8645 5.8202 -10.3392 -81.5019 -0.5262 -19.7016 13.3100 -7.9159 46.2175 -25.2115 -24.1400 -25.5973 53.2263 -14.7011 -69.0711 -61.5258 -48.2233 48.8585 60.1847 -41.2435 60.0064 55.7777
18.5441 45.0073 21.4719 -6.9941 6.1709 52.1534 -18.8488 5.0538 -51.1067 0.7843 -0.8991 21.3780 24.8935 13.8722 62.9988 -14.7680 16.0677 6.2491 100.3128 -6.1808 42.3200 124.9753 -7.2605 -140.0235 -168.0242 26.4304 -97.4709 -9.0893 10.5166 134.2347 21.0448 16.0429 9.9097 -84.5513 3.3609 46.8324 2.0087 -2.0856 -31.7629 7.3946 -9.7427 -79.4027 -0.6356 -18.7839 15.8896 -7.0475 46.5135 -26.2308 -23.4381 -20.7871 50.9819 -7.5692 -72.2196 -52.6793 -59.3998 54.8326 75.2290 -27.2567 62.9086 41.2354
17.9318 45.0597 21.1649 -7.4442 8.1934 51.1767 -20.4257 5.1572 -50.5570 1.1161 -1.3049 17.5560 27.1832 12.6701 66.2791 -14.8683 16.9704 6.9045 104.8792 -5.7167 31.8188 112.1345 -9.5193 -129.0923 -80.1479 -17.3643 -129.1282 -173.8806 -31.4418 -11.6267 19.2463 16.2509 10.8467 -84.7305 2.9575 46.8285 1.3933 -1.6408 -31.5192 8.2152 -8.8797 -79.0460 -1.8391 -21.7492 14.2374 -2.0316 49.5027 -35.0174 -24.2458 -21.7994 47.1533 -18.8049 -77.4867 -65.0674 -74.5246 58.5373 94.0307 -15.3827 64.4352 28.8393
